<?xml version="1.0" standalone="no"?>
<!DOCTYPE svg PUBLIC "-//W3C//DTD SVG 1.1//EN" "http://www.w3.org/Graphics/SVG/1.1/DTD/svg11.dtd" >
<!--
2013-9-30: Created.
-->
<svg>
<metadata>
Created by iconfont
</metadata>
<defs>

<font id="iconfont" horiz-adv-x="1024" >
  <font-face
    font-family="iconfont"
    font-weight="500"
    font-stretch="normal"
    units-per-em="1024"
    ascent="896"
    descent="-128"
  />
    <missing-glyph />
    
    <glyph glyph-name="x" unicode="x" horiz-adv-x="1001"
d="M281 543q-27 -1 -53 -1h-83q-18 0 -36.5 -6t-32.5 -18.5t-23 -32t-9 -45.5v-76h912v41q0 16 -0.5 30t-0.5 18q0 13 -5 29t-17 29.5t-31.5 22.5t-49.5 9h-133v-97h-438v97zM955 310v-52q0 -23 0.5 -52t0.5 -58t-10.5 -47.5t-26 -30t-33 -16t-31.5 -4.5q-14 -1 -29.5 -0.5
t-29.5 0.5h-32l-45 128h-439l-44 -128h-29h-34q-20 0 -45 1q-25 0 -41 9.5t-25.5 23t-13.5 29.5t-4 30v167h911zM163 247q-12 0 -21 -8.5t-9 -21.5t9 -21.5t21 -8.5q13 0 22 8.5t9 21.5t-9 21.5t-22 8.5zM316 123q-8 -26 -14 -48q-5 -19 -10.5 -37t-7.5 -25t-3 -15t1 -14.5
t9.5 -10.5t21.5 -4h37h67h81h80h64h36q23 0 34 12t2 38q-5 13 -9.5 30.5t-9.5 34.5q-5 19 -11 39h-368zM336 498v228q0 11 2.5 23t10 21.5t20.5 15.5t34 6h188q31 0 51.5 -14.5t20.5 -52.5v-227h-327z" />
    

    
    <glyph glyph-name="down" unicode="&#58964;" d="M85.333333 554.666667l426.666667-426.666667 426.666667 426.666667z"  horiz-adv-x="1024" />

    
    <glyph glyph-name="select" unicode="&#58965;" d="M414.72 168.704L232.704 354.474667 170.666667 291.669333 414.72 42.666667 938.666667 577.194667 877.141333 640z"  horiz-adv-x="1024" />

    
    <glyph glyph-name="share" unicode="&#58966;" d="M729.227636 216.343273c-27.508364 0-52.130909-10.519273-70.981818-26.996364l-258.094545 145.454546a111.243636 111.243636 0 0 1 3.258182 24.529454c0 8.378182-1.442909 16.477091-3.258182 24.529455l255.208727 144.058181c19.549091-17.547636 45.242182-28.392727 73.867636-28.392727C789.271273 499.525818 837.818182 546.443636 837.818182 604.625455S789.317818 709.818182 729.227636 709.818182c-60.090182 0-108.637091-46.964364-108.637091-105.146182 0-8.378182 1.442909-16.477091 3.258182-24.529455L368.64 436.084364a110.08 110.08 0 0 1-73.867636 28.392727c-60.043636 0-108.590545-47.010909-108.590546-105.192727 0-58.181818 48.500364-105.099636 108.590546-105.099637 28.625455 0 54.318545 10.845091 73.867636 28.392728l257.768727-145.82691a95.883636 95.883636 0 0 1-2.885818-22.807272c0-56.413091 47.383273-102.306909 105.658182-102.306909 58.321455 0 105.751273 45.893818 105.751273 102.353454 0 56.413091-47.476364 102.353455-105.704728 102.353455z"  horiz-adv-x="1024" />

    
    <glyph glyph-name="text" unicode="&#58967;" d="M887.690492 694.557377c-97.49823-24.374557-172.83777-73.123672-230.450361-146.247344-57.61259-70.907803-84.203016-157.326689-84.203016-257.040787 0-62.044328 13.295213-115.22518 42.101508-155.11082 31.022164-39.885639 70.907803-62.044328 121.872787-62.044328 42.101508 0 75.339541 13.295213 101.929967 37.669771 26.590426 26.590426 42.101508 59.828459 42.101508 99.714098 0 39.885639-13.295213 70.907803-37.66977 97.49823-26.590426 26.590426-59.828459 37.66977-97.49823 37.66977-22.158689 0-39.885639-2.215869-48.749115-6.647606 0 53.180852 15.511082 101.929967 48.749115 144.031475 35.453902 48.749115 81.987148 81.987148 141.815607 99.714098V694.557377z m-438.742033 0c-97.49823-24.374557-172.83777-73.123672-228.234492-146.247344C163.101377 477.40223 134.295082 390.983344 134.295082 291.269246c0-64.260197 13.295213-115.22518 44.317377-155.11082 28.806295-39.885639 68.691934-62.044328 119.656918-62.044328 44.317377 0 79.771279 13.295213 106.361705 37.669771 24.374557 26.590426 37.66977 59.828459 37.66977 99.714098 0 39.885639-13.295213 70.907803-39.885639 97.49823-26.590426 26.590426-57.61259 37.66977-93.066492 37.66977-24.374557 0-42.101508-2.215869-50.964983-6.647606 0 53.180852 15.511082 101.929967 50.964983 146.247344 33.238033 46.533246 79.771279 79.771279 139.599738 97.498229V694.557377z"  horiz-adv-x="1024" />

    
    <glyph glyph-name="contact" unicode="&#58968;" d="M505.297455 66.792727c-76.893091 0-148.945455 16.430545-210.525091 45.009455-23.086545 10.705455-141.963636-38.446545-162.816-23.831273-20.852364 14.615273 58.414545 91.694545 41.704727 109.381818C123.019636 250.647273 93.090909 316.741818 93.090909 388.235636 93.090909 565.853091 277.643636 709.818182 505.297455 709.818182s412.206545-143.965091 412.206545-321.536c0-177.570909-184.552727-321.489455-412.206545-321.489455z m-203.357091 263.773091a49.477818 49.477818 0 1 1 0 98.955637 49.477818 49.477818 0 0 1 0-98.955637z m203.403636 0a49.477818 49.477818 0 1 1 0 98.955637 49.477818 49.477818 0 0 1 0-98.955637z m203.310545 0a49.477818 49.477818 0 1 1 0 98.955637 49.477818 49.477818 0 0 1 0-98.955637z"  horiz-adv-x="1024" />

    
    <glyph glyph-name="sad" unicode="&#58969;" d="M206.222222 554.666667c-14.691556 0-26.112-4.721778-35.086222-14.165334-9.799111-9.443556-14.691556-20.451556-14.691556-33.834666 0-13.368889 4.892444-25.173333 14.691556-34.616889 8.96-8.661333 20.394667-13.383111 35.086222-13.383111 13.056 0 25.301333 4.721778 35.086222 13.368889A46.663111 46.663111 0 0 1 256 506.680889c0 13.368889-4.892444 24.391111-14.691556 33.848889A49.706667 49.706667 0 0 1 206.222222 554.666667z m0-288c-14.691556 0-26.112-4.721778-35.086222-14.165334-9.799111-9.443556-14.691556-20.451556-14.691556-33.834666 0-13.368889 4.892444-25.173333 14.691556-34.616889 8.96-8.661333 20.394667-13.383111 35.086222-13.383111 13.056 0 25.301333 4.721778 35.086222 13.368889A46.663111 46.663111 0 0 1 256 218.680889c0 13.368889-4.892444 24.391111-14.691556 33.848889a49.706667 49.706667 0 0 1-35.086222 14.151111zM341.333333 384v-42.666667h270.222223v42.666667zM881.777778 753.777778c-31.459556-52.266667-56.632889-106.894222-74.709334-163.911111-22.812444-69.674667-34.616889-137.770667-34.616888-205.866667 0-67.299556 11.804444-136.192 34.616888-205.866667C825.144889 121.912889 850.318222 67.271111 881.777778 14.222222h-55.054222c-33.820444 51.470222-60.558222 106.097778-81.009778 163.114667C722.915556 245.432889 711.111111 314.325333 711.111111 383.203556c0 70.471111 11.804444 139.363556 34.602667 207.459555 20.451556 57.799111 47.189333 112.440889 81.009778 163.114667H881.777778z"  horiz-adv-x="1024" />

    
    <glyph glyph-name="mycourses" unicode="&#58970;" d="M819.2 179.2v-34.133333c0-37.546667-30.72-68.266667-68.266667-68.266667H273.066667a68.266667 68.266667 0 0 0-68.266667 68.266667V622.933333a68.266667 68.266667 0 0 0 68.266667 68.266667h477.866666c37.546667 0 68.266667-30.72 68.266667-68.266667v-34.133333h-307.2a68.266667 68.266667 0 0 1-68.266667-68.266667v-273.066666a68.266667 68.266667 0 0 1 68.266667-68.266667h307.2z m-307.2 68.266667h341.333333v273.066666H512v-273.066666z m153.6 68.266666c-28.330667 0-51.2 22.869333-51.2 51.2s22.869333 51.2 51.2 51.2 51.2-22.869333 51.2-51.2-22.869333-51.2-51.2-51.2z"  horiz-adv-x="1024" />

    
    <glyph glyph-name="schedule" unicode="&#58971;" d="M750.933333 657.066667h-142.677333C593.92 696.661333 556.373333 725.333333 512 725.333333c-44.373333 0-81.92-28.672-96.256-68.266666H273.066667c-37.546667 0-68.266667-30.72-68.266667-68.266667v-477.866667c0-37.546667 30.72-68.266667 68.266667-68.266666h477.866666c37.546667 0 68.266667 30.72 68.266667 68.266666V588.8c0 37.546667-30.72 68.266667-68.266667 68.266667z m-238.933333 0c18.773333 0 34.133333-15.36 34.133333-34.133334s-15.36-34.133333-34.133333-34.133333-34.133333 15.36-34.133333 34.133333 15.36 34.133333 34.133333 34.133334z m68.266667-477.866667h-238.933334v68.266667h238.933334v-68.266667z m102.4 136.533333H341.333333v68.266667h341.333334v-68.266667z m0 136.533334H341.333333v68.266666h341.333334v-68.266666z"  horiz-adv-x="1024" />

    
    <glyph glyph-name="call" unicode="&#58972;" d="M546.133333 486.4h-68.266666v-68.266667h68.266666v68.266667z m136.533334 0h-68.266667v-68.266667h68.266667v68.266667z m102.4-221.866667c-42.666667 0-83.626667 6.826667-121.856 19.456a34.816 34.816 0 0 1-34.816-8.192l-75.093334-75.093333a514.525867 514.525867 0 0 0-224.938666 224.597333l75.093333 75.434667c9.557333 9.216 12.288 22.528 8.533333 34.474667A387.754667 387.754667 0 0 0 392.533333 657.066667c0 18.773333-15.36 34.133333-34.133333 34.133333H238.933333c-18.773333 0-34.133333-15.36-34.133333-34.133333 0-320.512 259.754667-580.266667 580.266667-580.266667 18.773333 0 34.133333 15.36 34.133333 34.133333v119.466667c0 18.773333-15.36 34.133333-34.133333 34.133333zM750.933333 486.4v-68.266667h68.266667v68.266667h-68.266667z"  horiz-adv-x="1024" />

    
    <glyph glyph-name="students" unicode="&#58973;" d="M512 725.333333c37.546667 0 68.266667-30.72 68.266667-68.266666s-30.72-68.266667-68.266667-68.266667-68.266667 30.72-68.266667 68.266667 30.72 68.266667 68.266667 68.266666z m307.2-238.933333h-204.8v-443.733333h-68.266667v204.8h-68.266666v-204.8h-68.266667V486.4H204.8v68.266667h614.4v-68.266667z"  horiz-adv-x="1024" />

    
    <glyph glyph-name="account" unicode="&#58974;" d="M512 725.333333C323.584 725.333333 170.666667 572.416 170.666667 384s152.917333-341.333333 341.333333-341.333333 341.333333 152.917333 341.333333 341.333333S700.416 725.333333 512 725.333333z m0-102.4c56.661333 0 102.4-45.738667 102.4-102.4s-45.738667-102.4-102.4-102.4-102.4 45.738667-102.4 102.4 45.738667 102.4 102.4 102.4z m0-484.693333a245.76 245.76 0 0 0-204.8 109.909333c1.024 67.925333 136.533333 105.130667 204.8 105.130667 67.925333 0 203.776-37.205333 204.8-105.130667a245.76 245.76 0 0 0-204.8-109.909333z"  horiz-adv-x="1024" />

    
    <glyph glyph-name="right" unicode="&#58975;" d="M307.2 652.970667L576.170667 384 307.2 115.029333 379.562667 42.666667l341.333333 341.333333-341.333333 341.333333z"  horiz-adv-x="1024" />

    
    <glyph glyph-name="comment" unicode="&#58976;" d="M716.8 213.333333H307.2v68.266667h409.6v-68.266667z m0 136.533334H307.2v68.266666h409.6v-68.266666z m0 136.533333H307.2v68.266667h409.6v-68.266667zM204.8 42.666667l51.2 51.2L307.2 42.666667l51.2 51.2L409.6 42.666667l51.2 51.2L512 42.666667l51.2 51.2L614.4 42.666667l51.2 51.2L716.8 42.666667l51.2 51.2L819.2 42.666667V725.333333l-51.2-51.2L716.8 725.333333l-51.2-51.2L614.4 725.333333l-51.2-51.2L512 725.333333l-51.2-51.2L409.6 725.333333l-51.2-51.2L307.2 725.333333 256 674.133333 204.8 725.333333v-682.666666z"  horiz-adv-x="1024" />

    
    <glyph glyph-name="left" unicode="&#58977;" d="M716.8 652.970667L450.491733 384 716.8 115.029333 645.154133 42.666667 307.2 384l337.954133 341.333333z"  horiz-adv-x="1024" />

    
    <glyph glyph-name="logo" unicode="&#58978;" d="M819.2 621.226667L782.574933 657.066667l-384.750933-149.538134 51.0976-50.0736 75.639467 31.1296 122.299733-119.808-31.778133-74.069333 51.0976-50.0736L819.2 621.192533z m-235.2128-104.925867l168.209067 75.434667-77.038934-164.7616-91.170133 89.326933zM642.013867 76.8v143.4624l-48.708267-47.7184-305.322667 299.1104L238.933333 423.594667l305.322667-299.076267L495.547733 76.8h146.432z"  horiz-adv-x="1024" />

    
    <glyph glyph-name="text1" unicode="&#58979;" d="M170.666667 588.8H102.4v-170.666667h0.341333L102.4 110.933333c0-37.546667 30.72-68.266667 68.266667-68.266666h614.4v68.266666H170.666667V588.8z m682.666666 68.266667h-273.066666l-68.266667 68.266666H307.2c-37.546667 0-67.925333-30.72-67.925333-68.266666L238.933333 247.466667c0-37.546667 30.72-68.266667 68.266667-68.266667h546.133333c37.546667 0 68.266667 30.72 68.266667 68.266667V588.8c0 37.546667-30.72 68.266667-68.266667 68.266667zM341.333333 281.6l153.6 204.8 119.466667-153.941333 85.333333 102.741333L819.2 281.6H341.333333z"  horiz-adv-x="1024" />

    
    <glyph glyph-name="off" unicode="&#59000;" d="M870.4 670.208L798.208 742.4 512 456.192 225.792 742.4 153.6 670.208 439.808 384 153.6 97.792 225.792 25.6 512 311.808 798.208 25.6 870.4 97.792 584.192 384z"  horiz-adv-x="1024" />

    
    <glyph glyph-name="starof" unicode="&#59001;" d="M506.148571 66.450286l253.001143-85.577143-3.218285 267.081143 159.561142 214.198857-254.976 79.506286-154.404571 217.965714-154.404571-217.965714-254.976-79.506286 159.561142-214.198857-3.181714-267.044572 253.001143 85.577143z m0-38.582857l-290.230857-98.157715 3.657143 306.322286L36.571429 481.718857l292.461714 91.172572L506.112 822.857143l177.115429-249.965714 292.461714-91.172572-183.04-245.686857 3.657143-306.322286-290.194286 98.157715z"  horiz-adv-x="1024" />

    
    <glyph glyph-name="star" unicode="&#59002;" d="M506.148571 27.867429l-290.230857-98.157715 3.657143 306.322286L36.571429 481.718857l292.461714 91.172572L506.112 822.857143l177.115429-249.965714 292.461714-91.172572-183.04-245.686857 3.657143-306.322286z"  horiz-adv-x="1024" />

    


  </font>
</defs>
</svg>
